HIERARCHY
ROOT Elbow
{
	OFFSET	0.00	0.00	0.00
	CHANNELS 6 Xposition Yposition Zposition Zrotation Xrotation Yrotation
	JOINT L_Wrist
	{
		OFFSET	 0.208349	 0.000000	 0.000000
		CHANNELS 3 Zrotation Xrotation Yrotation
		JOINT L_index_Proximal
		{
			OFFSET	 0.093499	 0.010637	-0.002084
			CHANNELS 3 Zrotation Xrotation Yrotation
			JOINT L_index_b
			{
				OFFSET	 0.033153	 0.000000	 0.000000
				CHANNELS 3 Zrotation Xrotation Yrotation
				JOINT L_index_c
				{
					OFFSET	 0.018651	 0.000000	 0.000000
					CHANNELS 3 Zrotation Xrotation Yrotation
					End Site
					{
						OFFSET	 0.018651	 0.000000	 0.000000
					}
				}
			}
		}
		JOINT L_middle_Proximal
		{
			OFFSET	 0.090632	-0.006115	-0.003750
			CHANNELS 3 Zrotation Xrotation Yrotation
			JOINT L_middle_b
			{
				OFFSET	 0.037194	 0.000000	 0.000000
				CHANNELS 3 Zrotation Xrotation Yrotation
				JOINT L_middle_c
				{
					OFFSET	 0.021943	 0.000000	 0.000000
					CHANNELS 3 Zrotation Xrotation Yrotation
					End Site
					{
						OFFSET	 0.021943	 0.000000	 0.000000
					}
				}
			}
		}
		JOINT L_pinky_Proximal
		{
			OFFSET	 0.074015	-0.035449	-0.000417
			CHANNELS 3 Zrotation Xrotation Yrotation
			JOINT L_pinky_b
			{
				OFFSET	 0.027285	 0.000000	 0.000000
				CHANNELS 3 Zrotation Xrotation Yrotation
				JOINT L_pinky_c
				{
					OFFSET	 0.015093	 0.000000	 0.000000
					CHANNELS 3 Zrotation Xrotation Yrotation
					End Site
					{
						OFFSET	 0.015093	 0.000000	 0.000000
					}
				}
			}
		}
		JOINT L_ring_Proximal
		{
			OFFSET	 0.082801	-0.021859	-0.003750
			CHANNELS 3 Zrotation Xrotation Yrotation
			JOINT L_ring_b
			{
				OFFSET	 0.034478	 0.000000	 0.000000
				CHANNELS 3 Zrotation Xrotation Yrotation
				JOINT L_ring_c
				{
					OFFSET	 0.021377	 0.000000	 0.000000
					CHANNELS 3 Zrotation Xrotation Yrotation
					End Site
					{
						OFFSET	 0.021377	 0.000000	 0.000000
					}
				}
			}
		}
		JOINT L_thumb_Proximal
		{
			OFFSET	 0.030306	 0.018528	 0.004584
			CHANNELS 3 Zrotation Xrotation Yrotation
			JOINT L_thumb_a
			{
				OFFSET	 0.038520	 0.000000	 0.000000
				CHANNELS 3 Zrotation Xrotation Yrotation
				JOINT L_thumb_b
				{
					OFFSET	 0.026310	 0.000000	 0.000000
					CHANNELS 3 Zrotation Xrotation Yrotation
					End Site
					{
						OFFSET	 0.026310	 0.000000	 0.000000
					}
				}
			}
		}
	}
}
MOTION
Frames:    9
Frame Time: 0.01666667
 0.234041	-0.135453	-0.303095	 80.469500	 35.919410	 54.580810	-1.407967	-0.646676	-3.670161	 0.420695	-0.116365	-8.995564	-0.903299	 0.114747	-14.478630	-0.887300	 0.073489	-9.468509	-5.837739	-9.006849	-5.668478	 0.663993	-0.090388	-15.504720	-2.153666	 0.172755	-9.171392	-25.546480	-19.873130	-5.024237	-0.308173	 0.040425	-14.945520	 1.419081	-0.113129	-9.114712	-16.192510	-11.819020	-8.167698	 0.035661	-0.004906	-15.657610	 0.126678	-0.010340	-9.331057	 55.838400	 61.357700	-12.279670	-1.659432	-0.086798	 5.987443	 0.297754	 0.002675	 1.025694
 0.233898	-0.135358	-0.303406	 80.461720	 35.925960	 54.573020	-1.415553	-0.649440	-3.685864	 0.423447	-0.115804	-8.840925	-0.893094	 0.112994	-14.421090	-0.865501	 0.071626	-9.460652	-5.811332	-9.007439	-5.585210	 0.662464	-0.089955	-15.464790	-2.158892	 0.173114	-9.168077	-25.570120	-19.871590	-5.066931	-0.327653	 0.043179	-15.014750	 1.405828	-0.112885	-9.180578	-16.179260	-11.821910	-8.206598	 0.033806	-0.004661	-15.712540	 0.121535	-0.009981	-9.395454	 55.844310	 61.357980	-12.275980	-1.660919	-0.086486	 5.961570	 0.282863	 0.002445	 1.000712
 0.233766	-0.135235	-0.303760	 80.473890	 35.918900	 54.558640	-1.444207	-0.652887	-3.705472	 0.431033	-0.115857	-8.701209	-0.879592	 0.111260	-14.417440	-0.839089	 0.069473	-9.466393	-5.763825	-9.008363	-5.442466	 0.655440	-0.088724	-15.419120	-2.170050	 0.174076	-9.171665	-25.545700	-19.872440	-4.978676	-0.315492	 0.041294	-14.914990	 1.413672	-0.112425	-9.094053	-16.141840	-11.827280	-8.210449	 0.028342	-0.003917	-15.718880	 0.116345	-0.009568	-9.408701	 55.831560	 61.365930	-12.235720	-1.688970	-0.087146	 5.906245	 0.281365	 0.002303	 0.938369
 0.233696	-0.135198	-0.304075	 80.475310	 35.918970	 54.555580	-1.475929	-0.652635	-3.704003	 0.456595	-0.118909	-8.560858	-0.867986	 0.109640	-14.398820	-0.816899	 0.067478	-9.443169	-5.716460	-9.011859	-5.368912	 0.668088	-0.090651	-15.454860	-2.168316	 0.174457	-9.198875	-25.541130	-19.872870	-4.962212	-0.325515	 0.042631	-14.921940	 1.398090	-0.111421	-9.112548	-16.110370	-11.833150	-8.256823	 0.026088	-0.003624	-15.794770	 0.115687	-0.009568	-9.459188	 55.814240	 61.374400	-12.192620	-1.699856	-0.087335	 5.882579	 0.284100	 0.002286	 0.922998
 0.233784	-0.135215	-0.304366	 80.470240	 35.922440	 54.557270	-1.518649	-0.650662	-3.692819	 0.521615	-0.128705	-8.558260	-0.869900	 0.110564	-14.486390	-0.805973	 0.066931	-9.493014	-5.674495	-9.017056	-5.372019	 0.672595	-0.091565	-15.503480	-2.167335	 0.174497	-9.205165	-25.588630	-19.872740	-5.275366	-0.394915	 0.052768	-15.232120	 1.379809	-0.112332	-9.300860	-16.049470	-11.841490	-8.235978	 0.029299	-0.004064	-15.802760	 0.128873	-0.010637	-9.432696	 55.861600	 61.354870	-12.286540	-1.685166	-0.087222	 5.924687	 0.277490	 0.002548	 1.050665
 0.233910	-0.135260	-0.304482	 80.451580	 35.932470	 54.567870	-1.540776	-0.637336	-3.617103	 0.572984	-0.137066	-8.668633	-0.883709	 0.113321	-14.613710	-0.817716	 0.068600	-9.590857	-5.725449	-9.013947	-5.471344	 0.661874	-0.090513	-15.574250	-2.171653	 0.175259	-9.227030	-25.747780	-19.862090	-5.665080	-0.464631	 0.063502	-15.568180	 1.399326	-0.115843	-9.463584	-16.080520	-11.836680	-8.235905	 0.029075	-0.004027	-15.788840	 0.130856	-0.010841	-9.467145	 55.909620	 61.344760	-12.328550	-1.681116	-0.087638	 5.968647	 0.260092	 0.002441	 1.070865
 0.234040	-0.135346	-0.304431	 80.453610	 35.917300	 54.562140	-1.557679	-0.635379	-3.605917	 0.595814	-0.141958	-8.821045	-0.895665	 0.116371	-14.803260	-0.820994	 0.069561	-9.685869	-5.843564	-9.003376	-5.583234	 0.659461	-0.090672	-15.657380	-2.152057	 0.175099	-9.302926	-25.806430	-19.857420	-5.738863	-0.445055	 0.060547	-15.496400	 1.430185	-0.117127	-9.362652	-16.169410	-11.825680	-8.310328	 0.006562	-0.000916	-15.851580	 0.126589	-0.010576	-9.540814	 55.897580	 61.339620	-12.361930	-1.664893	-0.087461	 6.013804	 0.259791	 0.002458	 1.085953
 0.234171	-0.135419	-0.304296	 80.411820	 35.930690	 54.586430	-1.538376	-0.630043	-3.575596	 0.614072	-0.146853	-9.007216	-0.939520	 0.122938	-14.909290	-0.836397	 0.071026	-9.707090	-5.898850	-8.999818	-5.668766	 0.651815	-0.089981	-15.719790	-2.148496	 0.175872	-9.358113	-25.891810	-19.850790	-5.869646	-0.437431	 0.059634	-15.524470	 1.411504	-0.116627	-9.446101	-16.286770	-11.812430	-8.470153	-0.012074	 0.001681	-15.940260	 0.123023	-0.010333	-9.596799	 55.883250	 61.331330	-12.410240	-1.680680	-0.089290	 6.081089	 0.245981	 0.002438	 1.132380
 0.234305	-0.135479	-0.304069	 80.379260	 35.934390	 54.605500	-1.515476	-0.630222	-3.576610	 0.577561	-0.142512	-9.229410	-0.994726	 0.130394	-14.935640	-0.837468	 0.070854	-9.671447	-5.940037	-8.993984	-5.661212	 0.665218	-0.091700	-15.697190	-2.143352	 0.174799	-9.323709	-25.932310	-19.846480	-5.883899	-0.427568	 0.058271	-15.521030	 1.410061	-0.116497	-9.445374	-16.381210	-11.799880	-8.557793	 0.001668	-0.000231	-15.922520	 0.140117	-0.011716	-9.564307	 55.869780	 61.322240	-12.469580	-1.670414	-0.089071	 6.104095	 0.252099	 0.002546	 1.167922
